<svg xmlns="http://www.w3.org/2000/svg" version="1.1" xmlns:xlink="http://www.w3.org/1999/xlink" xmlns:svgjs="http://svgjs.dev/svgjs" width="2000" height="2600" viewBox="0 0 2000 2600"><g transform="matrix(1,0,0,1,2.5520602411182836,1.0526315789472847)"><svg viewBox="0 0 190 247" data-background-color="#6936f5" preserveAspectRatio="xMidYMid meet" height="2600" width="2000" xmlns="http://www.w3.org/2000/svg" xmlns:xlink="http://www.w3.org/1999/xlink"><g id="tight-bounds" transform="matrix(1,0,0,1,-0.24244572290623978,-0.09999999999999432)"><svg viewBox="0 0 190.48489144581248 247.2" height="247.2" width="190.48489144581248"><g><svg viewBox="0 0 422.0413377891533 547.7002291867185" height="247.2" width="190.48489144581248"><g transform="matrix(1,0,0,1,13.260668894576668,462.34294855430744)"><svg viewBox="0 0 395.52 85.35728063241105" height="85.35728063241105" width="395.52"><g id="textblocktransform"><svg viewBox="0 0 395.52 85.35728063241105" height="85.35728063241105" width="395.52" id="textblock"><g><svg viewBox="0 0 395.52 85.35728063241105" height="85.35728063241105" width="395.52"><g transform="matrix(1,0,0,1,0,0)"><svg width="395.52" viewBox="0.75 -23.55 126.48 27.3" height="85.35728063241105" data-palette-color="#ffffff"><path d="M3.2 1L3.2 1Q2 1 1.38 0.28 0.75-0.45 0.75-1.6L0.75-1.6Q0.75-3.65 2.25-5.6L2.25-5.6Q3.45-7.15 4.93-8.43 6.4-9.7 7.83-10.48 9.25-11.25 10.25-11.25L10.25-11.25Q11.2-11.25 11.5-10.45L11.5-10.45Q11.7-10.05 11.7-9.5L11.7-9.5Q11.7-8.5 10.95-8.5L10.95-8.5Q10.6-8.5 10.33-8.83 10.05-9.15 10.05-9.75L10.05-9.75Q9.5-10 8.58-9.53 7.65-9.05 6.65-8.18 5.65-7.3 4.75-6.33 3.85-5.35 3.35-4.65L3.35-4.65Q2.45-3.4 2.45-1.9L2.45-1.9Q2.45-1.2 2.8-0.75 3.15-0.3 3.85-0.3L3.85-0.3Q4.5-0.3 5.4-0.7L5.4-0.7Q6.05-1.05 6.63-1.35 7.2-1.65 7.7-1.9L7.7-1.9Q10.8-3.65 11.2-3.65L11.2-3.65Q11.35-3.65 11.35-3.5L11.35-3.5Q11.35-3.35 11.1-3.1L11.1-3.1Q10.6-2.65 9.5-1.85 8.4-1.05 7.15-0.35 5.9 0.35 4.85 0.7L4.85 0.7Q3.9 1 3.2 1ZM12.6 3.3L12.6 3.3Q12.05 3.3 11.67 2.95 11.3 2.6 11.35 2.1L11.35 2.1Q11.45 0.05 12.12-1.85 12.8-3.75 14.1-6.4L14.1-6.4Q14.25-6.75 14.37-7.03 14.5-7.3 14.6-7.5L14.6-7.5Q15.7-9.85 16.85-12 18-14.15 19.15-16.2L19.15-16.2 19.85-17.45Q21.05-19.6 21.95-20.93 22.85-22.25 23.75-22.85L23.75-22.85Q24.9-23.55 25.15-23.55L25.15-23.55Q25.55-23.55 25.95-22.85L25.95-22.85Q26.2-22.35 24.95-20.4L24.95-20.4Q24.3-19.4 23.32-17.9 22.35-16.4 21-14.5L21-14.5Q20.75-14.15 20.17-13.28 19.6-12.4 18.65-11L18.65-11Q17.7-9.6 17-8.47 16.3-7.35 15.85-6.5L15.85-6.5Q14.95-4.85 14.15-2.98 13.35-1.1 13.35-0.05L13.35-0.05Q13.35 0.9 14.1 0.9L14.1 0.9Q15.3 0.9 17.95-1.15L17.95-1.15Q18.25-1.1 18.25-0.85L18.25-0.85Q18.25-0.65 17.75-0.15L17.75-0.15Q17.3 0.3 16.62 0.83 15.95 1.35 15.05 2.05L15.05 2.05 14.25 2.65Q13.45 3.3 12.6 3.3ZM21.8 0.85L21.8 0.85Q19.85 0.85 19.85-0.9L19.85-0.9Q19.85-1 19.87-1.25 19.89-1.5 19.95-1.85L19.95-1.85Q20.45-3.9 21.97-5.83 23.5-7.75 25.5-9.2L25.5-9.2Q26.25-9.8 27.9-9.8L27.9-9.8Q28.85-9.8 29.57-9.53 30.3-9.25 30.6-8.7L30.6-8.7Q30.9-8.2 30.9-7.55L30.9-7.55Q30.9-7.45 30.87-7.25 30.85-7.05 30.8-6.8L30.8-6.8Q30.9-6.85 31.12-6.85 31.35-6.85 31.7-6.9L31.7-6.9Q32.05-6.95 32.37-7 32.7-7.05 33.05-7.05L33.05-7.05 33.25-7.05Q33.8-7.05 33.37-6.63 32.95-6.2 32.25-6.1L32.25-6.1 30.55-5.9Q30.05-4.5 28.82-3.1 27.59-1.7 26.12-0.68 24.65 0.35 23.35 0.65L23.35 0.65Q22.6 0.85 21.8 0.85ZM28.2-6.6L28.2-6.6Q28.5-6.6 28.92-6.63 29.35-6.65 29.9-6.7L29.9-6.7Q29.95-6.8 29.95-7.15L29.95-7.15Q29.95-8.05 29.2-8.4L29.2-8.4Q28.8-8.65 28.2-8.65L28.2-8.65Q27.45-8.65 26.67-8.18 25.9-7.7 25.05-6.95L25.05-6.95Q26.1-6.6 28.2-6.6ZM23.3-0.9L23.3-0.9Q23.8-0.9 24.72-1.38 25.65-1.85 26.65-2.65 27.65-3.45 28.45-4.35L28.45-4.35Q28.7-4.6 28.95-4.98 29.2-5.35 29.5-5.75L29.5-5.75 28.3-5.6Q25.5-5.2 23.3-5.15L23.3-5.15Q22.2-3.35 21.95-2.15L21.95-2.15Q21.9-1.5 22.3-1.2 22.7-0.9 23.3-0.9ZM41.24 1.45L41.24 1.45Q39.94 1.45 39.94-0.45L39.94-0.45Q39.94-2.4 41.29-6.2L41.29-6.2Q39.69-4.15 38.12-2.58 36.54-1 34.99 0L34.99 0Q33.89 0.8 32.99 0.8L32.99 0.8Q31.79 0.8 31.79-0.85L31.79-0.85Q31.79-1.75 32.09-2.5L32.09-2.5Q32.49-3.6 33.27-5.05 34.04-6.5 35.09-7.95 36.14-9.4 37.24-10.4L37.24-10.4Q37.64-10.65 37.74-10.65L37.74-10.65Q38.09-10.65 38.09-10.25L38.09-10.25Q38.09-10.1 37.94-9.85L37.94-9.85Q37.49-9.35 36.89-8.4 36.29-7.45 35.74-6.35 35.19-5.25 34.82-4.33 34.44-3.4 34.44-2.95L34.44-2.95Q34.44-2.05 35.24-2.05L35.24-2.05Q35.59-2.05 35.99-2.3L35.99-2.3Q37.84-3.45 39.39-5.08 40.94-6.7 42.29-9.5L42.29-9.5Q42.74-9.8 43.29-9.8L43.29-9.8Q43.84-9.8 44.22-9.45 44.59-9.1 44.59-8.5L44.59-8.5Q44.59-8.05 44.34-7.45L44.34-7.45Q44.29-7.25 44.17-7.05 44.04-6.85 43.89-6.6L43.89-6.6Q43.74-6.35 43.64-6.13 43.54-5.9 43.44-5.75L43.44-5.75Q42.49-4.05 41.97-2.9 41.44-1.75 41.44-0.9L41.44-0.9Q41.44 0.1 42.34 0.1L42.34 0.1Q43.14 0.1 43.94-0.5L43.94-0.5Q44.44-0.85 44.79-0.85L44.79-0.85Q45.34-0.85 44.57-0.18 43.79 0.5 42.69 1.05L42.69 1.05Q41.64 1.45 41.24 1.45ZM54.39 3.75L54.39 3.75Q53.64 3.75 53.29 3L53.29 3Q53.24 2.95 53.24 2.7L53.24 2.7Q53.24 2.45 53.49 1.55L53.49 1.55Q53.59 1.3 53.67 1.05 53.74 0.8 53.84 0.55L53.84 0.55Q53.94 0.3 54.04-0.03 54.14-0.35 54.24-0.7L54.24-0.7Q54.44-1.45 54.44-1.95L54.44-1.95Q54.44-2.65 53.99-2.65L53.99-2.65Q53.84-2.65 53.44-2.4L53.44-2.4Q52.79-1.9 52.07-1.45 51.34-1 50.54-0.6L50.54-0.6 48.94 0.25 47.89 0.85Q47.74 0.9 47.19 1.3L47.19 1.3Q46.69 1.6 46.14 1.6L46.14 1.6Q45.49 1.6 44.69 0.9L44.69 0.9Q44.09 0.3 44.09-0.35L44.09-0.35Q44.09-0.9 44.64-1.9L44.64-1.9Q45.04-2.55 45.99-3.5L45.99-3.5Q46.39-3.9 46.67-4.23 46.94-4.55 47.14-4.75L47.14-4.75Q49.24-7.55 53.64-9.7L53.64-9.7Q54.89-10.35 55.89-10.35L55.89-10.35Q56.99-10.35 57.64-9.45L57.64-9.45Q57.94-10.05 58.62-11.18 59.29-12.3 60.12-13.65 60.94-15 61.72-16.2 62.49-17.4 62.94-18.05L62.94-18.05Q64.29-19.9 65.14-20.85L65.14-20.85Q65.99-21.75 66.69-21.75L66.69-21.75Q66.94-21.75 67.34-21.5L67.34-21.5Q67.69-21.2 67.69-20.7L67.69-20.7Q67.69-19.95 67.04-18.95 66.39-17.95 65.24-16.5L65.24-16.5Q65.14-16.35 64.94-16.13 64.74-15.9 64.49-15.55L64.49-15.55Q63.94-14.75 63.34-13.88 62.74-13 62.04-12.15L62.04-12.15Q61.04-10.85 59.94-9.33 58.84-7.8 57.89-6.15L57.89-6.15Q57.04-4.65 56.44-3.08 55.84-1.5 55.44 0.1L55.44 0.1Q55.39 0.45 55.37 0.68 55.34 0.9 55.34 1L55.34 1 55.39 1.75Q55.44 1.9 55.44 2.45L55.44 2.45Q55.44 3.75 54.39 3.75ZM47.54-0.55L47.54-0.55Q48.09-0.55 48.54-0.75L48.54-0.75Q50.44-1.4 52.14-2.4 53.84-3.4 55.74-5.1L55.74-5.1Q55.99-5.8 56.34-6.6 56.69-7.4 57.09-8.35L57.09-8.35Q56.49-9.6 55.34-9.6L55.34-9.6Q54.59-9.6 53.74-9.1 52.89-8.6 51.84-7.75L51.84-7.75Q50.84-6.95 49.82-5.95 48.79-4.95 48.04-4.03 47.29-3.1 46.99-2.5L46.99-2.5Q46.69-2 46.69-1.35L46.69-1.35Q46.69-0.55 47.54-0.55ZM77.69 3.1L77.69 3.1Q75.59 3.1 73.69 2.33 71.79 1.55 69.24 0.1L69.24 0.1Q68.54-0.3 68.01-0.58 67.49-0.85 67.14-1.05L67.14-1.05Q63.39 1.2 61.44 1.2L61.44 1.2Q60.59 1.2 60.04 0.75L60.04 0.75Q58.89-0.25 58.89-2.1L58.89-2.1Q58.89-2.95 59.16-3.63 59.44-4.3 59.84-4.45L59.84-4.45Q60.29-4.6 60.74-4.6L60.74-4.6Q62.99-4.6 67.09-1.75L67.09-1.75Q68.99-2.95 70.39-4.13 71.79-5.3 73.06-6.8 74.34-8.3 75.74-10.3L75.74-10.3Q76.89-11.9 77.56-13.65 78.24-15.4 78.24-16.85L78.24-16.85Q78.24-18.7 77.09-19.8 75.94-20.9 73.49-20.9L73.49-20.9Q72.29-20.9 71.21-20.58 70.14-20.25 69.14-19.55L69.14-19.55Q67.49-18.35 66.51-16.63 65.54-14.9 65.54-13.35L65.54-13.35Q65.54-12 66.24-11.15L66.24-11.15Q66.74-10.5 68.94-10.5L68.94-10.5 69.84-10.5Q70.39-10.5 70.39-10.45L70.39-10.45Q70.39-10.45 69.84-10.2L69.84-10.2Q69.39-10 68.54-10L68.54-10Q66.84-10 65.39-11 63.94-12 63.94-13.65L63.94-13.65Q63.94-14.05 64.14-14.8L64.14-14.8Q64.49-15.8 65.06-16.73 65.64-17.65 66.49-18.45L66.49-18.45Q68.19-20.05 70.41-20.9 72.64-21.75 74.79-21.75L74.79-21.75Q77.69-21.75 79.39-20.25L79.39-20.25Q81.09-18.85 81.09-16.3L81.09-16.3Q81.09-14.05 79.56-11.45 78.04-8.85 74.74-6.15L74.74-6.15Q73.64-5.2 71.86-4 70.09-2.8 67.74-1.35L67.74-1.35Q70.09-0.4 71.69 0.18 73.29 0.75 74.54 0.98 75.79 1.2 77.09 1.2L77.09 1.2Q79.14 1.2 80.29 0.53 81.44-0.15 81.19-1.25L81.19-1.25 81.19-1.4Q81.19-1.75 81.39-1.83 81.59-1.9 81.74-1.65L81.74-1.65Q82.09-1.15 82.09-0.25L82.09-0.25Q82.09 1.15 81.04 2.13 79.99 3.1 77.69 3.1ZM62.79-0.1L62.79-0.1Q64.49-0.1 66.59-1.45L66.59-1.45Q65.89-1.95 64.91-2.48 63.94-3 62.96-3.38 61.99-3.75 61.29-3.75L61.29-3.75Q60.14-3.75 60.29-2.55L60.29-2.55Q60.49-0.1 62.79-0.1ZM82.94 3.3L82.94 3.3Q82.39 3.3 82.01 2.95 81.64 2.6 81.69 2.1L81.69 2.1Q81.79 0.05 82.46-1.85 83.14-3.75 84.44-6.4L84.44-6.4Q84.59-6.75 84.71-7.03 84.84-7.3 84.94-7.5L84.94-7.5Q86.04-9.85 87.19-12 88.34-14.15 89.48-16.2L89.48-16.2 90.19-17.45Q91.39-19.6 92.29-20.93 93.19-22.25 94.09-22.85L94.09-22.85Q95.24-23.55 95.49-23.55L95.49-23.55Q95.89-23.55 96.29-22.85L96.29-22.85Q96.54-22.35 95.29-20.4L95.29-20.4Q94.64-19.4 93.66-17.9 92.69-16.4 91.34-14.5L91.34-14.5Q91.09-14.15 90.51-13.28 89.94-12.4 88.98-11L88.98-11Q88.04-9.6 87.34-8.47 86.64-7.35 86.19-6.5L86.19-6.5Q85.29-4.85 84.48-2.98 83.69-1.1 83.69-0.05L83.69-0.05Q83.69 0.9 84.44 0.9L84.44 0.9Q85.64 0.9 88.29-1.15L88.29-1.15Q88.59-1.1 88.59-0.85L88.59-0.85Q88.59-0.65 88.09-0.15L88.09-0.15Q87.64 0.3 86.96 0.83 86.29 1.35 85.39 2.05L85.39 2.05 84.59 2.65Q83.79 3.3 82.94 3.3ZM98.38 1.35L98.38 1.35Q98.28 1.35 98.18 1.33 98.08 1.3 97.98 1.25L97.98 1.25Q97.28 0.9 97.08 0.25 96.88-0.4 96.98-1.4L96.98-1.4Q97.08-1.8 97.21-2.8 97.33-3.8 97.53-4.4L97.53-4.4 94.98-1.95 93.58-0.6Q92.13 0.85 91.18 0.85L91.18 0.85Q90.78 0.85 90.53 0.55L90.53 0.55Q90.08 0 90.08-0.8L90.08-0.8Q90.08-1.85 90.63-3.05 91.18-4.25 91.93-5.38 92.68-6.5 93.28-7.25L93.28-7.25Q94.78-9.1 96.21-10.15 97.63-11.2 99.18-11.2L99.18-11.2Q100.03-11.2 100.86-10.9 101.68-10.6 102.38-9.9L102.38-9.9 102.43-9.85Q102.43-9.7 102.18-9.55L102.18-9.55Q102.08-9.45 102.01-9.4 101.93-9.35 101.88-9.3L101.88-9.3Q101.28-8.7 100.53-7.3 99.78-5.9 99.23-4.38 98.68-2.85 98.68-1.75L98.68-1.75Q98.68-0.75 99.18-0.4L99.18-0.4Q99.43-0.25 99.73-0.25L99.73-0.25Q100.38-0.25 101.53-1.05L101.53-1.05Q101.58-1.1 101.76-1.23 101.93-1.35 102.28-1.6L102.28-1.6Q102.68-1.9 102.93-1.9L102.93-1.9Q103.18-1.9 103.18-1.7L103.18-1.7Q103.18-1.4 102.78-1L102.78-1Q102.48-0.75 102.11-0.45 101.73-0.15 101.23 0.15L101.23 0.15Q100.48 0.7 99.68 1.03 98.88 1.35 98.38 1.35ZM92.73-1.85L92.73-1.85Q93.78-1.85 96.63-4.95L96.63-4.95Q97.38-5.8 97.98-6.58 98.58-7.35 99.08-8.1L99.08-8.1Q99.98-9.55 99.68-10.1L99.68-10.1Q99.53-10.4 99.08-10.4L99.08-10.4Q98.53-10.4 97.58-9.83 96.63-9.25 95.66-8.35 94.68-7.45 93.88-6.55L93.88-6.55Q93.33-5.85 92.78-4.6 92.23-3.35 92.23-2.55L92.23-2.55Q92.23-1.85 92.73-1.85ZM105.18 2.25L105.18 2.25Q104.03 2.25 104.03 1L104.03 1Q104.03 0.05 104.53-1L104.53-1 108.08-8.75Q108.48-9.6 109.18-11.03 109.88-12.45 110.88-14.5L110.88-14.5Q110.98-14.7 111.11-14.95 111.23-15.2 111.38-15.45L111.38-15.45Q111.68-16 111.98-16.65L111.98-16.65 112.58-17.9Q113.53-19.9 114.26-21.08 114.98-22.25 115.88-22.85L115.88-22.85Q117.03-23.55 117.33-23.55L117.33-23.55Q117.68-23.55 118.08-22.85L118.08-22.85Q118.08-22.8 118.11-22.8 118.13-22.8 118.13-22.75L118.13-22.75Q118.13-22.45 117.68-21.75L117.68-21.75Q117.38-21.3 116.86-20.53 116.33-19.75 115.58-18.65L115.58-18.65Q112.83-14.7 110.91-11.5 108.98-8.3 107.68-5.05L107.68-5.05Q108.93-6.15 110.36-7.25 111.78-8.35 112.78-8.95L112.78-8.95Q114.18-9.75 115.23-9.75L115.23-9.75Q116.83-9.75 116.83-7.65L116.83-7.65Q116.83-5.35 115.48-3.48 114.13-1.6 111.76-0.23 109.38 1.15 106.38 2L106.38 2Q105.73 2.25 105.18 2.25ZM106.33 0.4L106.93 0.45Q108.78 0.45 110.63-0.8L110.63-0.8Q112.48-2 113.66-3.73 114.83-5.45 114.83-6.8L114.83-6.8Q114.83-7.65 114.28-8.2L114.28-8.2Q113.83-8.3 112.53-7.58 111.23-6.85 109.76-5.68 108.28-4.5 107.13-3.25L107.13-3.25Q106.13-0.2 106.33 0.4L106.33 0.4ZM115.93 2.1L115.93 2.1Q115.13 2.1 114.53 1.95L114.53 1.95Q113.98 1.8 113.98 1.55L113.98 1.55Q113.98 1.15 114.78 1.1L114.78 1.1Q115.53 1.05 115.78 0.95L115.78 0.95Q116.23 0.85 116.83 0.8L116.83 0.8Q117.38 0.7 117.73 0.65L117.73 0.65Q120.13-0.05 120.13-1.5L120.13-1.5Q120.13-2.5 119.08-4.05L119.08-4.05Q118.43-5 118.43-6.15L118.43-6.15Q118.43-7.55 119.3-8.9 120.18-10.25 121.5-11.28 122.83-12.3 124.18-12.65L124.18-12.65Q124.78-12.8 125.43-12.8L125.43-12.8Q126.48-12.8 126.93-12.3L126.93-12.3Q127.23-12 127.23-11L127.23-11Q127.23-10.25 126.98-9.47 126.73-8.7 126.28-8.2L126.28-8.2Q126.03-7.95 125.88-7.95L125.88-7.95Q125.63-7.95 125.63-8.65L125.63-8.65 125.68-9.65Q125.73-10.05 125.75-10.35 125.78-10.65 125.78-10.85L125.78-10.85Q125.78-11.7 125.43-11.85L125.43-11.85Q125.03-11.95 124.88-11.95L124.88-11.95Q123.83-11.95 122.63-11 121.43-10.05 120.68-8.8L120.68-8.8Q120.38-8.35 120.38-7.7L120.38-7.7Q120.38-6.9 120.8-5.83 121.23-4.75 121.43-4.25L121.43-4.25Q121.93-3.15 122.2-2.35 122.48-1.55 122.48-0.95L122.48-0.95Q122.48-0.65 122.43-0.5L122.43-0.5Q122.68-0.6 123.63-0.8L123.63-0.8Q124.48-1 125.08-1L125.08-1Q125.43-1 125.43-0.85L125.43-0.85Q125.43-0.8 125.13-0.5L125.13-0.5Q124.98-0.35 124.2-0.03 123.43 0.3 122.4 0.65 121.38 1 120.38 1.3 119.38 1.6 118.68 1.75L118.68 1.75Q117.48 2.1 115.93 2.1Z" opacity="1" transform="matrix(1,0,0,1,0,0)" fill="#ffffff" class="wordmark-text-0" data-fill-palette-color="primary" id="text-0"></path></svg></g></svg></g></svg></g></svg></g><g><svg viewBox="0 0 422.0413377891533 422.0413377891533" height="422.0413377891533" width="422.0413377891533"><g><svg></svg></g><g id="icon-0"><svg viewBox="0 0 422.0413377891533 422.0413377891533" height="422.0413377891533" width="422.0413377891533"><g><path d="M0 211.021c0-116.543 94.477-211.021 211.021-211.021 116.543 0 211.021 94.477 211.02 211.021 0 116.543-94.477 211.021-211.02 211.02-116.543 0-211.021-94.477-211.021-211.02zM211.021 414.344c112.292 0 203.323-91.031 203.323-203.323 0-112.292-91.031-203.323-203.323-203.323-112.292 0-203.323 91.031-203.323 203.323 0 112.292 91.031 203.323 203.323 203.323z" data-fill-palette-color="accent" fill="#ffffff" stroke="transparent"></path></g><g transform="matrix(1,0,0,1,83.05094071209291,140.44024501280956)"><svg viewBox="0 0 255.9394563649675 141.16084776353418" height="141.16084776353418" width="255.9394563649675"><g><svg xmlns:dc="http://purl.org/dc/elements/1.1/" xmlns:cc="http://creativecommons.org/ns#" xmlns:rdf="http://www.w3.org/1999/02/22-rdf-syntax-ns#" xmlns:svg="http://www.w3.org/2000/svg" xmlns="http://www.w3.org/2000/svg" xmlns:sodipodi="http://sodipodi.sourceforge.net/DTD/sodipodi-0.dtd" xmlns:inkscape="http://www.inkscape.org/namespaces/inkscape" version="1.0" x="0" y="0" viewBox="0 0 100 55.154" enable-background="new 0 0 100 55.154" xml:space="preserve" width="255.9394563649675" height="141.16084776353418" class="icon-cg-0" data-fill-palette-color="accent" id="cg-0"><path d="M77.959 55.154l-66.677 0C5.061 55.154 0 50.093 0 43.873 0 38.595 3.643 34.152 8.546 32.927 10.734 27.458 15.794 23.541 21.695 22.838 22.317 10.14 32.843 0 45.693 0c9.417 0 17.822 5.536 21.723 13.756 3.203-1.75 6.812-2.682 10.543-2.682 12.153 0 22.041 9.887 22.041 22.04 0 12.153-9.887 22.04-22.041 22.04z" fill="#ffffff" data-fill-palette-color="accent"></path></svg></g></svg></g></svg></g></svg></g><g></g></svg></g><defs></defs></svg><rect width="190.48489144581248" height="247.2" fill="none" stroke="none" visibility="hidden"></rect></g></svg></g></svg>